<?xml version="1.0" encoding="utf-8"?>
<!-- Generator: Adobe Illustrator 25.4.1, SVG Export Plug-In . SVG Version: 6.00 Build 0)  -->
<svg version="1.1" id="Capa_1" xmlns="http://www.w3.org/2000/svg" xmlns:xlink="http://www.w3.org/1999/xlink" x="0px" y="0px"
	 viewBox="0 0 188.8 70.8" style="enable-background:new 0 0 188.8 70.8;" xml:space="preserve">
<style type="text/css">
	.st0{fill:#FFFFFF;}
</style>
<g>
	<path class="st0" d="M56.3,53.6c-0.6-0.5-1.3-0.9-2.1-1.2s-1.8-0.6-2.8-0.9c-0.7-0.2-1.4-0.4-1.9-0.5c-0.6-0.2-1-0.3-1.4-0.5
		s-0.7-0.4-0.9-0.6c-0.2-0.2-0.3-0.5-0.3-0.9c0-0.6,0.2-1,0.7-1.3s1.1-0.5,1.9-0.5c0.6,0,1.3,0.1,1.9,0.3c0.6,0.2,1.2,0.4,1.8,0.6
		c0.5,0.2,1,0.5,1.4,0.7s0.6,0.4,0.7,0.5l2.1-4.1c-0.5-0.3-1-0.6-1.6-0.8c-0.6-0.3-1.2-0.5-1.9-0.8c-0.7-0.2-1.3-0.4-2.1-0.5
		c-0.7-0.1-1.5-0.2-2.2-0.2c-1.1,0-2.1,0.2-3,0.5c-1,0.3-1.8,0.8-2.5,1.3c-0.7,0.6-1.3,1.3-1.7,2.2s-0.6,1.9-0.6,3
		c0,0.8,0.1,1.5,0.3,2.1s0.6,1.1,1.1,1.6s1.1,0.9,1.8,1.2c0.7,0.4,1.6,0.7,2.6,1c0.7,0.2,1.4,0.4,2.1,0.6c0.6,0.2,1.2,0.4,1.6,0.6
		c0.5,0.2,0.8,0.4,1.1,0.7s0.4,0.6,0.4,1c0,1.1-0.9,1.6-2.6,1.6c-0.8,0-1.6-0.1-2.4-0.3c-0.8-0.2-1.5-0.5-2.2-0.8
		c-0.6-0.3-1.2-0.6-1.6-0.8c-0.4-0.3-0.7-0.5-0.8-0.6L41,62.1c0.6,0.4,1.3,0.8,2.1,1.1c0.7,0.3,1.5,0.6,2.3,0.8
		c0.8,0.2,1.6,0.4,2.4,0.5c0.8,0.1,1.6,0.2,2.4,0.2c1,0,2-0.1,3-0.3c1-0.2,1.8-0.6,2.6-1.1c0.7-0.5,1.3-1.2,1.8-2s0.7-1.9,0.7-3.1
		c0-1-0.2-1.8-0.5-2.5C57.3,54.7,56.9,54.1,56.3,53.6z"/>
	<path class="st0" d="M75.8,45.1c-0.6-0.7-1.4-1.2-2.2-1.7c-0.9-0.4-1.8-0.6-2.8-0.6h-9.2v21.5h5v-6.9H71c1,0,2-0.2,2.8-0.6
		c0.8-0.4,1.6-0.9,2.2-1.6c0.6-0.7,1.1-1.5,1.4-2.3c0.3-0.9,0.5-1.8,0.5-2.7s-0.2-1.8-0.5-2.6C76.9,46.6,76.5,45.8,75.8,45.1z
		 M72.2,52.3c-0.4,0.5-0.9,0.8-1.5,0.8h-4v-5.9h3.9c0.3,0,0.6,0.1,0.8,0.2c0.3,0.1,0.5,0.3,0.8,0.5c0.2,0.2,0.4,0.5,0.5,0.9
		s0.2,0.8,0.2,1.3C72.8,51,72.6,51.8,72.2,52.3z"/>
	<polygon class="st0" points="104.7,55.4 94.7,42.8 90.8,42.8 90.8,64.3 95.7,64.3 95.7,52 105.6,64.3 109.6,64.3 109.6,42.8 
		104.7,42.8 	"/>
	<path class="st0" d="M130.9,46.1c-0.9-1-2-1.9-3.2-2.5s-2.6-0.9-4.2-0.9c-1.5,0-2.9,0.3-4.1,0.9c-1.3,0.6-2.3,1.4-3.3,2.4
		c-0.9,1-1.6,2.2-2.1,3.5s-0.8,2.7-0.8,4.1c0,1.4,0.2,2.7,0.7,4s1.2,2.5,2.1,3.5s2,1.8,3.2,2.5c1.2,0.6,2.6,0.9,4.2,0.9
		c1.5,0,2.9-0.3,4.1-0.9c1.3-0.6,2.3-1.4,3.2-2.4s1.6-2.2,2.1-3.5s0.8-2.7,0.8-4.1c0-1.3-0.2-2.7-0.7-4
		C132.5,48.3,131.8,47.1,130.9,46.1z M128.3,55.9c-0.2,0.8-0.5,1.5-1,2.1c-0.4,0.6-1,1.1-1.6,1.5s-1.4,0.6-2.3,0.6
		c-0.8,0-1.6-0.2-2.3-0.5c-0.7-0.4-1.2-0.8-1.6-1.5c-0.4-0.6-0.8-1.3-1-2.1s-0.3-1.6-0.3-2.4c0-0.8,0.1-1.6,0.3-2.4
		c0.2-0.8,0.5-1.5,1-2.1c0.4-0.6,1-1.1,1.6-1.5s1.4-0.6,2.3-0.6c0.8,0,1.6,0.2,2.2,0.5c0.6,0.4,1.2,0.8,1.6,1.4
		c0.4,0.6,0.8,1.3,1,2.1s0.3,1.6,0.3,2.4C128.6,54.3,128.5,55.1,128.3,55.9z"/>
	<path class="st0" d="M151,53.6c-0.6-0.5-1.3-0.9-2.1-1.2s-1.8-0.6-2.8-0.9c-0.7-0.2-1.4-0.4-1.9-0.5c-0.6-0.2-1-0.3-1.4-0.5
		s-0.7-0.4-0.9-0.6c-0.2-0.2-0.3-0.5-0.3-0.9c0-0.6,0.2-1,0.7-1.3s1.1-0.5,1.9-0.5c0.6,0,1.3,0.1,1.9,0.3c0.6,0.2,1.2,0.4,1.8,0.6
		c0.5,0.2,1,0.5,1.4,0.7s0.6,0.4,0.7,0.5l2.1-4.1c-0.5-0.3-1-0.6-1.6-0.8c-0.6-0.3-1.2-0.5-1.9-0.8c-0.7-0.2-1.3-0.4-2.1-0.5
		c-0.7-0.1-1.5-0.2-2.2-0.2c-1.1,0-2.1,0.2-3,0.5c-1,0.3-1.8,0.8-2.5,1.3c-0.7,0.6-1.3,1.3-1.7,2.2s-0.6,1.9-0.6,3
		c0,0.8,0.1,1.5,0.3,2.1s0.6,1.1,1.1,1.6s1.1,0.9,1.8,1.2c0.7,0.4,1.6,0.7,2.6,1c0.7,0.2,1.4,0.4,2.1,0.6c0.6,0.2,1.2,0.4,1.6,0.6
		c0.5,0.2,0.8,0.4,1.1,0.7s0.4,0.6,0.4,1c0,1.1-0.9,1.6-2.6,1.6c-0.8,0-1.6-0.1-2.4-0.3c-0.8-0.2-1.5-0.5-2.2-0.8
		c-0.6-0.3-1.2-0.6-1.6-0.8c-0.4-0.3-0.7-0.5-0.8-0.6l-2.2,4.3c0.6,0.4,1.3,0.8,2.1,1.1c0.7,0.3,1.5,0.6,2.3,0.8
		c0.8,0.2,1.6,0.4,2.4,0.5c0.8,0.1,1.6,0.2,2.4,0.2c1,0,2-0.1,3-0.3c1-0.2,1.8-0.6,2.6-1.1c0.7-0.5,1.3-1.2,1.8-2s0.7-1.9,0.7-3.1
		c0-1-0.2-1.8-0.5-2.5C152,54.7,151.6,54.1,151,53.6z"/>
	<polygon class="st0" points="99.9,39 99.9,17.5 94.9,17.5 94.9,30.1 84.9,17.5 81.1,17.5 81.1,38.6 81.1,39 81.1,64.3 86,64.3 
		86,39 86,38.6 86,26.7 95.9,39 	"/>
	<polygon class="st0" points="54.8,39 54.8,17.5 49.4,17.5 43.9,28.7 38.3,17.5 32.9,17.5 32.9,39 37.9,39 37.9,26.1 42.5,35.5 
		45.2,35.5 49.8,26.1 49.8,39 	"/>
	<path class="st0" d="M118.4,38.3c1.2-0.6,2.2-1.3,3-2.3s1.3-2.1,1.7-3.4c0.4-1.3,0.6-2.7,0.6-4.2v-11h-5v11c0,0.8-0.1,1.6-0.2,2.3
		c-0.2,0.8-0.4,1.4-0.8,2s-0.8,1.1-1.4,1.4c-0.6,0.4-1.3,0.5-2.1,0.5s-1.6-0.2-2.1-0.5c-0.6-0.3-1-0.8-1.4-1.4
		c-0.4-0.6-0.6-1.2-0.8-2c-0.2-0.7-0.2-1.5-0.2-2.4v-11h-5v11c0,1.4,0.2,2.8,0.5,4c0.4,1.3,0.9,2.4,1.7,3.4c0.8,1,1.7,1.8,2.9,2.3
		c1.2,0.6,2.7,0.9,4.4,0.9C115.7,39.1,117.2,38.9,118.4,38.3z"/>
	<polygon class="st0" points="143.1,21.9 143.1,17.5 128.3,17.5 128.3,39 143.4,39 143.4,34.6 133.3,34.6 133.3,30 141.7,30 
		141.7,26 133.3,26 133.3,21.9 	"/>
	<polygon class="st0" points="147.4,17.5 147.4,39 162.7,39 162.7,34.6 152.3,34.6 152.3,17.5 	"/>
	<path class="st0" d="M65.9,17.5L57.7,39H63l1.6-4.8h6.7L73,39h5.3L70,17.5H65.9z M65.6,30l2.3-7.3l2.3,7.3H65.6z"/>
	<g>
		<path class="st0" d="M3.1,4.6v4v2.5v44.2h20.6l0,0h5h3.5h4.9v-4h-8.5v-4.2h9.9v-4.4H23.8v8.5H7.1V11.1V8.6h175.7v2.5v40.2h-13.5
			l-3.3-8.5h-4l-8.2,21.5h5.3l1.6-4.8h6.7l1.7,4.8h5.3l-2.8-7.2h-4.8l-0.4-1.7h4.5l0,0h16V11.1V8.6v-4C186.9,4.6,3.1,4.6,3.1,4.6z
			 M161.7,55.3L164,48l2.3,7.3H161.7z"/>
		<polygon class="st0" points="28.7,57.1 23.8,57.1 23.8,64.3 38.8,64.3 38.8,59.9 28.7,59.9 		"/>
	</g>
</g>
</svg>
