<!-- Generator: Adobe Illustrator 24.2.3, SVG Export Plug-In  -->
<svg version="1.1" xmlns="http://www.w3.org/2000/svg" xmlns:xlink="http://www.w3.org/1999/xlink" x="0px" y="0px"
	 width="53.629px" height="63.601px" viewBox="0 0 53.629 63.601"
	 style="overflow:visible;enable-background:new 0 0 53.629 63.601;" xml:space="preserve">
<style type="text/css">
	.st0{fill:#FFFFFF;}
</style>
<defs>
</defs>
<path id="XMLID_1_" class="st0" d="M7.145,59.567c0,0,9.21,4.129,18.944,4.033c0.183,0.001,0.734-0.008,0.734-0.008
	s0.54,0.009,0.724,0.008c9.734,0.096,18.939-4.033,18.939-4.033c4.412,0.673,7.142-3.165,7.142-3.165l-1.204-9.209
	c-0.766-8.345-8.441-9.784-9.976-10.265c-1.535-0.48-7.099-2.014-7.865-3.742c-0.258-0.574-0.278-1.667-0.191-2.862
	c2.191-2.631,3.627-5.954,4.394-8.074c1.128,0.787,1.584-0.19,1.584-0.19c3.551-5.18,1.344-7.29,0.865-7.674
	c-0.48-0.384-0.959,0.287-0.959,0.287l-0.049,0.144C40.904,1.015,29.118,0.065,27.732,0c0.022,0.005-0.12,0.015-0.909,0.036
	c-0.8-0.021-0.938-0.03-0.913-0.036c-1.357,0.061-13.189,0.993-12.512,14.816l-0.049-0.144c0,0-0.479-0.672-0.959-0.287
	c-0.478,0.384-2.686,2.493,0.865,7.674c0,0,0.456,0.978,1.584,0.19c0.767,2.121,2.203,5.444,4.394,8.074
	c0.087,1.195,0.067,2.289-0.191,2.862c-0.767,1.728-6.331,3.262-7.866,3.742c-1.535,0.481-9.21,1.919-9.976,10.265L0,56.402
	C0,56.402,2.733,60.239,7.145,59.567z"/>
</svg>