<!-- Generator: Adobe Illustrator 24.2.3, SVG Export Plug-In  -->
<svg version="1.1" xmlns="http://www.w3.org/2000/svg" xmlns:xlink="http://www.w3.org/1999/xlink" x="0px" y="0px"
	 width="300.771px" height="90.537px" viewBox="0 0 300.771 90.537"
	 style="overflow:visible;enable-background:new 0 0 300.771 90.537;" xml:space="preserve">
<style type="text/css">
	.st0{fill:#FFFFFF;}
	.st1{fill:none;stroke:#FFFFFF;stroke-width:2;stroke-miterlimit:10;}
</style>
<defs>
</defs>
<path class="st0" d="M72.018,18.69H41.149c-5.944,0-10.762,4.817-10.762,10.761v30.867c0,5.945,4.818,10.761,10.762,10.761h17.644
	V50.241h-7.159v-8.066h7.159v-5.697h0.001c0.03-5.459,2.007-7.323,2.007-7.323c2.903-3.773,7.457-3.66,7.457-3.66H69.5h6.002v7.597
	h-4.833c-3.317-0.057-3.601,2.75-3.621,3.386h0.002v5.697h8.093l-0.99,8.066h-7.103v20.838h4.968c5.943,0,10.76-4.816,10.76-10.761
	V29.451C82.779,23.507,77.961,18.69,72.018,18.69z"/>
<g>
	<path class="st0" d="M103.756,29.079h18.764v4.11h-14.006v7.117h12.293v3.882h-12.293v12.065h-4.758V29.079z"/>
	<path class="st0" d="M142.196,51.877c0,0.533,0.069,0.913,0.209,1.142s0.412,0.343,0.818,0.343c0.127,0,0.279,0,0.457,0
		c0.177,0,0.381-0.025,0.609-0.076v3.007c-0.152,0.051-0.35,0.107-0.591,0.171s-0.488,0.12-0.742,0.172
		c-0.254,0.05-0.508,0.088-0.761,0.114c-0.254,0.024-0.47,0.038-0.647,0.038c-0.888,0-1.624-0.178-2.207-0.533
		c-0.584-0.355-0.965-0.977-1.142-1.865c-0.863,0.838-1.922,1.446-3.179,1.827c-1.256,0.381-2.468,0.571-3.635,0.571
		c-0.888,0-1.738-0.121-2.55-0.362c-0.812-0.24-1.528-0.596-2.15-1.065c-0.622-0.469-1.116-1.065-1.484-1.789
		c-0.368-0.723-0.552-1.566-0.552-2.53c0-1.219,0.222-2.208,0.666-2.969c0.443-0.762,1.027-1.357,1.751-1.789
		c0.723-0.432,1.535-0.742,2.436-0.933s1.809-0.336,2.722-0.438c0.786-0.152,1.535-0.26,2.245-0.323s1.339-0.172,1.885-0.324
		c0.545-0.152,0.976-0.387,1.294-0.704c0.316-0.316,0.476-0.792,0.476-1.427c0-0.558-0.134-1.015-0.399-1.37
		c-0.267-0.355-0.597-0.628-0.99-0.818s-0.831-0.317-1.312-0.381c-0.482-0.063-0.939-0.095-1.37-0.095
		c-1.219,0-2.221,0.254-3.007,0.761c-0.787,0.508-1.231,1.294-1.332,2.359h-4.339c0.076-1.268,0.38-2.321,0.913-3.158
		c0.533-0.838,1.211-1.51,2.036-2.018c0.824-0.507,1.757-0.862,2.798-1.065c1.04-0.203,2.105-0.305,3.196-0.305
		c0.965,0,1.916,0.102,2.854,0.305s1.783,0.532,2.531,0.989s1.352,1.047,1.808,1.77c0.457,0.724,0.686,1.605,0.686,2.646V51.877z
		 M137.857,46.396c-0.66,0.432-1.472,0.691-2.436,0.78c-0.965,0.089-1.929,0.223-2.893,0.399c-0.457,0.076-0.901,0.185-1.332,0.323
		c-0.432,0.14-0.812,0.33-1.143,0.571s-0.59,0.559-0.78,0.951c-0.189,0.394-0.285,0.87-0.285,1.428c0,0.482,0.14,0.889,0.419,1.218
		c0.278,0.33,0.615,0.59,1.009,0.78c0.393,0.19,0.824,0.323,1.294,0.399c0.469,0.076,0.895,0.114,1.274,0.114
		c0.482,0,1.002-0.063,1.561-0.19s1.085-0.343,1.58-0.646c0.494-0.305,0.906-0.691,1.236-1.161s0.495-1.047,0.495-1.731V46.396z"/>
	<path class="st0" d="M160.16,43.161c-0.178-1.218-0.666-2.138-1.465-2.76c-0.8-0.621-1.809-0.932-3.026-0.932
		c-0.558,0-1.154,0.095-1.788,0.285c-0.635,0.19-1.219,0.546-1.751,1.065c-0.533,0.521-0.978,1.244-1.332,2.17
		c-0.355,0.926-0.533,2.138-0.533,3.635c0,0.812,0.096,1.624,0.285,2.436c0.19,0.812,0.495,1.535,0.914,2.169
		c0.418,0.635,0.957,1.148,1.617,1.542c0.659,0.394,1.459,0.59,2.397,0.59c1.269,0,2.315-0.394,3.141-1.18
		c0.824-0.786,1.338-1.89,1.541-3.312h4.339c-0.406,2.563-1.377,4.523-2.911,5.881c-1.536,1.357-3.572,2.036-6.109,2.036
		c-1.548,0-2.911-0.261-4.091-0.78c-1.18-0.521-2.176-1.23-2.988-2.132c-0.812-0.9-1.427-1.973-1.846-3.216
		s-0.628-2.588-0.628-4.034c0-1.472,0.203-2.854,0.609-4.148c0.405-1.295,1.015-2.417,1.826-3.369
		c0.812-0.951,1.82-1.699,3.026-2.245c1.205-0.546,2.619-0.818,4.243-0.818c1.143,0,2.227,0.146,3.255,0.438
		c1.027,0.292,1.94,0.729,2.74,1.313c0.799,0.584,1.452,1.319,1.96,2.207c0.507,0.889,0.812,1.941,0.913,3.159H160.16z"/>
	<path class="st0" d="M171.426,47.538c0,0.762,0.107,1.497,0.323,2.208c0.216,0.71,0.539,1.332,0.971,1.864
		c0.432,0.533,0.977,0.958,1.637,1.275c0.659,0.317,1.446,0.476,2.359,0.476c1.269,0,2.29-0.272,3.064-0.818
		c0.773-0.545,1.351-1.363,1.731-2.455h4.11c-0.229,1.066-0.622,2.018-1.18,2.854c-0.559,0.838-1.23,1.542-2.018,2.112
		c-0.786,0.571-1.668,1.003-2.645,1.294c-0.978,0.292-1.998,0.438-3.064,0.438c-1.548,0-2.918-0.254-4.11-0.762
		c-1.192-0.507-2.201-1.218-3.025-2.131c-0.825-0.914-1.446-2.005-1.865-3.273s-0.628-2.664-0.628-4.187
		c0-1.396,0.222-2.722,0.666-3.978c0.443-1.256,1.078-2.359,1.903-3.312c0.824-0.951,1.82-1.706,2.987-2.265
		c1.167-0.558,2.486-0.837,3.958-0.837c1.548,0,2.938,0.323,4.168,0.971c1.23,0.646,2.252,1.503,3.063,2.569
		c0.812,1.065,1.402,2.29,1.771,3.672c0.367,1.384,0.463,2.811,0.285,4.282H171.426z M181.55,44.683
		c-0.051-0.686-0.196-1.345-0.438-1.979c-0.241-0.634-0.571-1.186-0.989-1.655c-0.419-0.469-0.927-0.85-1.522-1.142
		c-0.597-0.292-1.263-0.438-1.999-0.438c-0.761,0-1.452,0.133-2.074,0.399s-1.154,0.635-1.598,1.104
		c-0.444,0.47-0.8,1.021-1.066,1.655c-0.267,0.635-0.412,1.32-0.438,2.056H181.55z"/>
	<path class="st0" d="M189.314,29.079h4.339v10.048h0.076c0.305-0.481,0.672-0.914,1.104-1.294c0.431-0.381,0.906-0.704,1.427-0.971
		c0.52-0.267,1.065-0.47,1.637-0.609c0.571-0.139,1.135-0.209,1.693-0.209c1.548,0,2.898,0.272,4.054,0.818
		c1.154,0.546,2.112,1.294,2.873,2.245c0.762,0.952,1.333,2.062,1.713,3.331c0.381,1.269,0.571,2.626,0.571,4.072
		c0,1.319-0.172,2.601-0.514,3.844c-0.343,1.243-0.863,2.341-1.561,3.292c-0.698,0.952-1.58,1.713-2.646,2.284
		c-1.065,0.57-2.321,0.856-3.768,0.856c-0.66,0-1.326-0.045-1.998-0.134c-0.673-0.089-1.313-0.261-1.923-0.514
		c-0.608-0.253-1.16-0.583-1.655-0.989s-0.907-0.938-1.237-1.599h-0.076v2.702h-4.11V29.079z M204.463,46.434
		c0-0.888-0.114-1.751-0.343-2.588c-0.229-0.838-0.571-1.58-1.027-2.227c-0.457-0.647-1.027-1.167-1.713-1.561
		s-1.472-0.59-2.359-0.59c-1.827,0-3.204,0.634-4.13,1.902c-0.927,1.27-1.39,2.956-1.39,5.062c0,0.989,0.12,1.909,0.362,2.759
		c0.24,0.851,0.603,1.58,1.084,2.188c0.482,0.609,1.06,1.092,1.732,1.446c0.672,0.356,1.452,0.533,2.341,0.533
		c0.989,0,1.826-0.203,2.512-0.609c0.685-0.405,1.249-0.932,1.693-1.579s0.762-1.383,0.952-2.207
		C204.367,48.141,204.463,47.297,204.463,46.434z"/>
	<path class="st0" d="M221.475,56.787c-1.573,0-2.975-0.261-4.205-0.78c-1.231-0.521-2.271-1.237-3.121-2.15
		c-0.851-0.914-1.498-2.005-1.941-3.273c-0.444-1.269-0.666-2.664-0.666-4.187c0-1.497,0.222-2.88,0.666-4.148
		c0.443-1.269,1.091-2.36,1.941-3.273c0.85-0.913,1.89-1.63,3.121-2.15c1.23-0.52,2.632-0.78,4.205-0.78
		c1.573,0,2.975,0.261,4.206,0.78c1.23,0.521,2.271,1.237,3.121,2.15c0.85,0.913,1.496,2.005,1.94,3.273s0.666,2.651,0.666,4.148
		c0,1.522-0.222,2.918-0.666,4.187s-1.091,2.359-1.94,3.273c-0.851,0.913-1.891,1.63-3.121,2.15
		C224.45,56.526,223.048,56.787,221.475,56.787z M221.475,53.361c0.964,0,1.802-0.203,2.512-0.609
		c0.711-0.405,1.295-0.938,1.751-1.598c0.457-0.66,0.793-1.402,1.009-2.227c0.215-0.824,0.323-1.669,0.323-2.531
		c0-0.838-0.108-1.675-0.323-2.512c-0.216-0.838-0.552-1.58-1.009-2.227c-0.456-0.647-1.04-1.174-1.751-1.58
		c-0.71-0.405-1.548-0.608-2.512-0.608c-0.965,0-1.802,0.203-2.512,0.608c-0.711,0.406-1.294,0.933-1.751,1.58
		c-0.457,0.646-0.793,1.389-1.009,2.227c-0.216,0.837-0.323,1.674-0.323,2.512c0,0.862,0.107,1.707,0.323,2.531
		s0.552,1.566,1.009,2.227c0.457,0.659,1.04,1.192,1.751,1.598C219.673,53.158,220.51,53.361,221.475,53.361z"/>
	<path class="st0" d="M244.044,56.787c-1.573,0-2.975-0.261-4.205-0.78c-1.231-0.521-2.271-1.237-3.121-2.15
		c-0.851-0.914-1.498-2.005-1.941-3.273c-0.444-1.269-0.666-2.664-0.666-4.187c0-1.497,0.222-2.88,0.666-4.148
		c0.443-1.269,1.091-2.36,1.941-3.273c0.85-0.913,1.89-1.63,3.121-2.15c1.23-0.52,2.632-0.78,4.205-0.78s2.975,0.261,4.206,0.78
		c1.23,0.521,2.271,1.237,3.121,2.15c0.85,0.913,1.496,2.005,1.94,3.273s0.666,2.651,0.666,4.148c0,1.522-0.222,2.918-0.666,4.187
		s-1.091,2.359-1.94,3.273c-0.851,0.913-1.891,1.63-3.121,2.15C247.018,56.526,245.617,56.787,244.044,56.787z M244.044,53.361
		c0.964,0,1.802-0.203,2.512-0.609c0.711-0.405,1.295-0.938,1.751-1.598c0.457-0.66,0.793-1.402,1.009-2.227
		c0.215-0.824,0.323-1.669,0.323-2.531c0-0.838-0.108-1.675-0.323-2.512c-0.216-0.838-0.552-1.58-1.009-2.227
		c-0.456-0.647-1.04-1.174-1.751-1.58c-0.71-0.405-1.548-0.608-2.512-0.608c-0.965,0-1.802,0.203-2.512,0.608
		c-0.711,0.406-1.294,0.933-1.751,1.58c-0.457,0.646-0.793,1.389-1.009,2.227c-0.216,0.837-0.323,1.674-0.323,2.512
		c0,0.862,0.107,1.707,0.323,2.531s0.552,1.566,1.009,2.227c0.457,0.659,1.04,1.192,1.751,1.598
		C242.242,53.158,243.079,53.361,244.044,53.361z"/>
	<path class="st0" d="M257.707,29.079h4.339v15.452l7.841-7.954h5.328l-7.536,7.231l8.26,12.445h-5.291l-6.013-9.553l-2.589,2.512
		v7.041h-4.339V29.079z"/>
</g>
<path class="st1" d="M280.97,89.537H19.8C9.417,89.537,1,81.12,1,70.736V19.8C1,9.417,9.417,1,19.8,1h261.17
	c10.383,0,18.8,8.417,18.8,18.8v50.936C299.771,81.12,291.353,89.537,280.97,89.537z"/>
</svg>