<!-- Generator: Adobe Illustrator 24.2.3, SVG Export Plug-In  -->
<svg version="1.1" xmlns="http://www.w3.org/2000/svg" xmlns:xlink="http://www.w3.org/1999/xlink" x="0px" y="0px"
	 width="102.559px" height="123.419px" viewBox="0 0 102.559 123.419"
	 style="overflow:visible;enable-background:new 0 0 102.559 123.419;" xml:space="preserve">
<style type="text/css">
	.st0{fill:#FFFFFF;}
</style>
<defs>
</defs>
<g>
	<path class="st0" d="M21.872,38.058h-4.065v27.555h0.062v28.902c0,2.209,1.793,4,4.002,4h8.549V116.3
		c0,3.932,3.188,7.119,7.119,7.119c3.932,0,7.119-3.188,7.119-7.119V98.515h13.239V116.3c0,3.932,3.188,7.119,7.119,7.119
		c3.933,0,7.12-3.188,7.12-7.119V98.515h8.549c2.209,0,4-1.791,4-4V65.612h0.065V38.058h-4.065H21.872z"/>
	<path class="st0" d="M95.439,35.78c-3.932,0-7.119,3.188-7.119,7.12v31.993c0,3.932,3.188,7.119,7.119,7.119
		c3.933,0,7.12-3.188,7.12-7.119V42.899C102.559,38.967,99.371,35.78,95.439,35.78z"/>
	<path class="st0" d="M7.119,35.78C3.188,35.78,0,38.967,0,42.899v31.993c0,3.932,3.188,7.119,7.119,7.119
		c3.933,0,7.12-3.188,7.12-7.119V42.899C14.239,38.967,11.052,35.78,7.119,35.78z"/>
	<path class="st0" d="M67.417,9.028l5.73-8.087c0.119-0.167-0.052-0.491-0.382-0.725c-0.327-0.232-0.69-0.287-0.81-0.119
		l-5.912,8.344c-3.996-1.566-8.85-2.538-14.765-2.557c-5.948-0.018-10.822,0.925-14.83,2.467l-5.848-8.254
		c-0.119-0.168-0.482-0.112-0.809,0.119c-0.33,0.234-0.501,0.558-0.383,0.725L35.07,8.93c-16.499,7.291-16.985,25.185-16.985,25.185
		h66.389C84.474,34.116,83.797,16.381,67.417,9.028z M36.71,23.65c-2.207,0-3.996-1.789-3.996-3.996
		c0-2.207,1.789-3.996,3.996-3.996c2.206,0,3.996,1.789,3.996,3.996C40.706,21.861,38.916,23.65,36.71,23.65z M65.849,23.65
		c-2.207,0-3.996-1.789-3.996-3.996c0-2.207,1.789-3.996,3.996-3.996c2.205,0,3.996,1.789,3.996,3.996
		C69.845,21.861,68.054,23.65,65.849,23.65z"/>
</g>
</svg>