<!-- Generator: Adobe Illustrator 24.2.3, SVG Export Plug-In  -->
<svg version="1.1" xmlns="http://www.w3.org/2000/svg" xmlns:xlink="http://www.w3.org/1999/xlink" x="0px" y="0px"
	 width="256.022px" height="90.537px" viewBox="0 0 256.022 90.537"
	 style="overflow:visible;enable-background:new 0 0 256.022 90.537;" xml:space="preserve">
<style type="text/css">
	.st0{fill:none;stroke:#FFFFFF;stroke-width:2;stroke-miterlimit:10;}
	.st1{fill:#FFFFFF;}
</style>
<defs>
</defs>
<path class="st0" d="M236.222,89.537H19.8C9.417,89.537,1,81.12,1,70.736V19.8C1,9.417,9.417,1,19.8,1h216.421
	c10.383,0,18.8,8.417,18.8,18.8v50.936C255.022,81.12,246.605,89.537,236.222,89.537z"/>
<path class="st1" d="M49.338,69.08c21.554,0,33.339-17.859,33.339-33.342c0-0.506-0.008-1.012-0.035-1.513
	c2.291-1.652,4.278-3.722,5.844-6.068c-2.098,0.931-4.36,1.56-6.726,1.845c2.42-1.452,4.273-3.747,5.153-6.482
	c-2.262,1.339-4.774,2.32-7.442,2.847c-2.143-2.28-5.179-3.703-8.553-3.703c-6.471,0-11.714,5.248-11.714,11.713
	c0,0.92,0.103,1.811,0.3,2.676c-9.737-0.496-18.378-5.156-24.153-12.244c-1.004,1.729-1.586,3.74-1.586,5.886
	c0,4.065,2.066,7.652,5.217,9.756c-1.922-0.061-3.732-0.587-5.309-1.468c-0.003,0.053-0.003,0.1-0.003,0.15
	c0,5.678,4.041,10.415,9.397,11.487c-0.977,0.266-2.016,0.414-3.084,0.414c-0.756,0-1.489-0.078-2.203-0.216
	c1.495,4.661,5.82,8.048,10.944,8.143c-4.009,3.145-9.062,5.016-14.553,5.016c-0.943,0-1.874-0.055-2.794-0.164
	C36.562,67.139,42.72,69.08,49.338,69.08"/>
<g>
	<path class="st1" d="M105.872,27.594h24.082v4.5h-9.458v25.248h-5.208V32.094h-9.416V27.594z"/>
	<path class="st1" d="M126.162,35.802h5.042l4.208,16.082h0.083l4.041-16.082h4.792l3.875,16.082h0.083l4.375-16.082h4.833
		l-6.75,21.54h-4.875l-4-15.999h-0.083l-3.958,15.999h-5L126.162,35.802z"/>
	<path class="st1" d="M160.66,27.594h4.75v4.5h-4.75V27.594z M160.66,35.802h4.75v21.54h-4.75V35.802z"/>
	<path class="st1" d="M168.41,35.802h3.583v-6.458h4.75v6.458h4.292v3.541h-4.292v11.499c0,0.5,0.021,0.932,0.062,1.292
		c0.042,0.361,0.139,0.667,0.292,0.917c0.152,0.25,0.382,0.438,0.688,0.562s0.722,0.188,1.25,0.188c0.333,0,0.667-0.007,1-0.021
		c0.333-0.014,0.667-0.062,1-0.146V57.3c-0.528,0.056-1.042,0.111-1.542,0.167s-1.014,0.083-1.542,0.083
		c-1.25,0-2.257-0.118-3.021-0.354c-0.764-0.236-1.361-0.584-1.792-1.042s-0.723-1.034-0.875-1.729
		c-0.153-0.694-0.243-1.486-0.271-2.375V39.343h-3.583V35.802z"/>
	<path class="st1" d="M182.283,35.802h3.583v-6.458h4.75v6.458h4.292v3.541h-4.292v11.499c0,0.5,0.021,0.932,0.062,1.292
		c0.042,0.361,0.139,0.667,0.292,0.917c0.152,0.25,0.382,0.438,0.688,0.562s0.722,0.188,1.25,0.188c0.333,0,0.667-0.007,1-0.021
		c0.333-0.014,0.667-0.062,1-0.146V57.3c-0.528,0.056-1.042,0.111-1.542,0.167s-1.014,0.083-1.542,0.083
		c-1.25,0-2.257-0.118-3.021-0.354c-0.764-0.236-1.361-0.584-1.792-1.042s-0.723-1.034-0.875-1.729
		c-0.153-0.694-0.243-1.486-0.271-2.375V39.343h-3.583V35.802z"/>
	<path class="st1" d="M202.032,47.801c0,0.833,0.118,1.64,0.354,2.417c0.236,0.777,0.59,1.458,1.062,2.041
		c0.472,0.583,1.069,1.049,1.792,1.396c0.722,0.348,1.583,0.521,2.583,0.521c1.389,0,2.506-0.299,3.354-0.896
		c0.847-0.597,1.479-1.492,1.896-2.688h4.5c-0.25,1.167-0.681,2.209-1.292,3.125c-0.611,0.917-1.348,1.688-2.208,2.312
		s-1.827,1.098-2.896,1.417c-1.069,0.318-2.188,0.479-3.354,0.479c-1.694,0-3.194-0.277-4.5-0.833
		c-1.306-0.556-2.41-1.333-3.312-2.333c-0.903-1-1.583-2.194-2.042-3.583c-0.458-1.389-0.688-2.917-0.688-4.583
		c0-1.527,0.243-2.979,0.729-4.354c0.485-1.375,1.18-2.583,2.083-3.624c0.902-1.042,1.993-1.868,3.271-2.479
		c1.277-0.61,2.722-0.916,4.333-0.916c1.694,0,3.215,0.354,4.562,1.062c1.347,0.709,2.464,1.646,3.354,2.812
		c0.888,1.167,1.534,2.507,1.937,4.021c0.402,1.515,0.507,3.077,0.312,4.688H202.032z M213.114,44.676
		c-0.056-0.75-0.215-1.472-0.479-2.166c-0.265-0.694-0.625-1.299-1.083-1.812c-0.458-0.514-1.014-0.931-1.667-1.25
		c-0.653-0.319-1.382-0.479-2.188-0.479c-0.833,0-1.59,0.146-2.271,0.438c-0.681,0.292-1.264,0.695-1.75,1.209
		c-0.486,0.514-0.875,1.118-1.167,1.812c-0.292,0.695-0.452,1.445-0.479,2.25H213.114z"/>
	<path class="st1" d="M221.489,35.802h4.458v4.166h0.083c0.139-0.583,0.41-1.152,0.812-1.708c0.402-0.556,0.889-1.062,1.458-1.521
		c0.569-0.459,1.201-0.826,1.896-1.104c0.694-0.277,1.402-0.416,2.125-0.416c0.555,0,0.938,0.014,1.146,0.041
		c0.208,0.028,0.423,0.057,0.646,0.084v4.583c-0.333-0.056-0.674-0.104-1.021-0.146c-0.348-0.041-0.688-0.062-1.021-0.062
		c-0.806,0-1.562,0.16-2.271,0.479c-0.708,0.319-1.327,0.791-1.854,1.416c-0.528,0.625-0.944,1.396-1.25,2.312
		c-0.306,0.917-0.458,1.973-0.458,3.167v10.249h-4.75V35.802z"/>
</g>
</svg>