<!-- Generator: Adobe Illustrator 24.2.3, SVG Export Plug-In  -->
<svg version="1.1" xmlns="http://www.w3.org/2000/svg" xmlns:xlink="http://www.w3.org/1999/xlink" x="0px" y="0px"
	 width="314.448px" height="90.537px" viewBox="0 0 314.448 90.537"
	 style="overflow:visible;enable-background:new 0 0 314.448 90.537;" xml:space="preserve">
<style type="text/css">
	.st0{fill:none;stroke:#FFFFFF;stroke-width:2;stroke-miterlimit:10;}
	.st1{fill:#FFFFFF;}
</style>
<defs>
</defs>
<g>
	<path class="st0" d="M294.648,89.537H19.8C9.417,89.537,1,81.12,1,70.736V19.8C1,9.417,9.417,1,19.8,1h274.848
		c10.383,0,18.8,8.417,18.8,18.8v50.936C313.448,81.12,305.031,89.537,294.648,89.537z"/>
	<g>
		<path class="st1" d="M67.797,18.69H47.69c-8.916,0-16.142,7.227-16.142,16.144v20.106c0,8.914,7.227,16.14,16.142,16.14h20.107
			c8.916,0,16.141-7.226,16.141-16.14V34.834C83.938,25.917,76.712,18.69,67.797,18.69z M78.909,53.009
			c0,7.206-5.841,13.043-13.042,13.043H49.619c-7.205,0-13.044-5.838-13.044-13.043V36.761c0-7.201,5.84-13.043,13.044-13.043
			h16.248c7.201,0,13.042,5.842,13.042,13.043V53.009z"/>
		<path class="st1" d="M58.445,31.178c-7.623,0-13.801,6.176-13.801,13.799c0,7.619,6.178,13.799,13.801,13.799
			c7.621,0,13.799-6.18,13.799-13.799C72.244,37.354,66.066,31.178,58.445,31.178z M58.445,53.278c-4.589,0-8.304-3.719-8.304-8.302
			c0-4.588,3.715-8.303,8.304-8.303c4.584,0,8.302,3.714,8.302,8.303C66.747,49.559,63.029,53.278,58.445,53.278z"/>
		<path class="st1" d="M74.799,30.962c0,1.938-1.574,3.509-3.51,3.509c-1.938,0-3.508-1.571-3.508-3.509
			c0-1.937,1.57-3.511,3.508-3.511C73.225,27.451,74.799,29.025,74.799,30.962z"/>
	</g>
	<g>
		<path class="st1" d="M107.628,28.027h5.208v29.748h-5.208V28.027z"/>
		<path class="st1" d="M118.544,36.235h4.5v3.166l0.083,0.084c0.722-1.194,1.667-2.132,2.833-2.812
			c1.167-0.681,2.458-1.021,3.875-1.021c2.36,0,4.222,0.611,5.583,1.833c1.36,1.223,2.041,3.056,2.041,5.499v14.791h-4.749V44.234
			c-0.057-1.693-0.417-2.923-1.084-3.687c-0.666-0.764-1.708-1.146-3.124-1.146c-0.807,0-1.528,0.146-2.167,0.438
			c-0.639,0.292-1.181,0.695-1.625,1.209s-0.791,1.118-1.041,1.812c-0.25,0.695-0.375,1.432-0.375,2.209v12.707h-4.75V36.235z"/>
		<path class="st1" d="M146.042,50.859c0.139,1.389,0.666,2.361,1.583,2.916c0.916,0.557,2.014,0.834,3.291,0.834
			c0.444,0,0.951-0.035,1.521-0.104c0.568-0.069,1.104-0.201,1.604-0.396s0.909-0.479,1.229-0.854
			c0.318-0.375,0.465-0.868,0.438-1.479c-0.028-0.61-0.25-1.11-0.667-1.499s-0.952-0.701-1.604-0.938s-1.396-0.438-2.229-0.604
			s-1.681-0.347-2.542-0.542c-0.889-0.193-1.743-0.43-2.562-0.708c-0.82-0.277-1.557-0.652-2.209-1.125
			c-0.652-0.472-1.173-1.076-1.562-1.812c-0.39-0.735-0.584-1.646-0.584-2.729c0-1.167,0.285-2.146,0.854-2.938
			s1.291-1.431,2.166-1.917c0.875-0.485,1.848-0.825,2.917-1.021c1.068-0.193,2.09-0.291,3.062-0.291
			c1.11,0,2.173,0.118,3.187,0.354c1.014,0.236,1.931,0.618,2.75,1.146c0.819,0.528,1.5,1.216,2.042,2.062
			c0.541,0.848,0.881,1.869,1.021,3.062h-4.958c-0.223-1.139-0.743-1.902-1.562-2.291s-1.757-0.584-2.812-0.584
			c-0.333,0-0.729,0.028-1.188,0.084c-0.458,0.056-0.889,0.16-1.291,0.312c-0.403,0.152-0.743,0.375-1.021,0.666
			c-0.278,0.292-0.417,0.674-0.417,1.146c0,0.584,0.201,1.057,0.604,1.417c0.402,0.361,0.93,0.66,1.583,0.896
			c0.652,0.236,1.396,0.438,2.229,0.604c0.834,0.167,1.694,0.348,2.583,0.542c0.861,0.194,1.709,0.431,2.542,0.708
			s1.576,0.652,2.229,1.125s1.181,1.069,1.584,1.791c0.402,0.723,0.604,1.611,0.604,2.667c0,1.277-0.291,2.361-0.875,3.25
			c-0.583,0.889-1.34,1.61-2.271,2.166s-1.965,0.958-3.104,1.208c-1.14,0.25-2.265,0.375-3.375,0.375
			c-1.361,0-2.618-0.152-3.771-0.458c-1.153-0.306-2.153-0.771-3-1.396c-0.848-0.625-1.514-1.402-2-2.333s-0.743-2.035-0.771-3.312
			H146.042z"/>
		<path class="st1" d="M161.916,36.235h3.583v-6.458h4.749v6.458h4.292v3.541h-4.292v11.499c0,0.5,0.021,0.932,0.062,1.292
			c0.042,0.361,0.139,0.667,0.292,0.917c0.152,0.25,0.382,0.438,0.688,0.562s0.722,0.188,1.25,0.188c0.333,0,0.666-0.007,1-0.021
			c0.333-0.014,0.666-0.062,1-0.146v3.666c-0.528,0.056-1.042,0.111-1.542,0.167s-1.014,0.083-1.541,0.083
			c-1.25,0-2.258-0.118-3.021-0.354c-0.764-0.236-1.36-0.584-1.791-1.042s-0.723-1.034-0.875-1.729
			c-0.153-0.694-0.243-1.486-0.271-2.375V39.776h-3.583V36.235z"/>
		<path class="st1" d="M195.996,52.984c0,0.583,0.076,1,0.229,1.25c0.152,0.25,0.451,0.375,0.896,0.375c0.139,0,0.306,0,0.5,0
			s0.416-0.027,0.666-0.084v3.292c-0.166,0.055-0.382,0.117-0.646,0.188c-0.264,0.068-0.535,0.131-0.812,0.188
			c-0.277,0.055-0.556,0.097-0.833,0.125c-0.278,0.027-0.515,0.041-0.708,0.041c-0.973,0-1.778-0.194-2.417-0.583
			s-1.056-1.069-1.25-2.042c-0.944,0.917-2.104,1.584-3.479,2c-1.375,0.417-2.702,0.625-3.979,0.625
			c-0.972,0-1.902-0.132-2.791-0.396c-0.89-0.264-1.674-0.652-2.354-1.167c-0.681-0.514-1.222-1.166-1.624-1.958
			c-0.403-0.791-0.604-1.715-0.604-2.771c0-1.333,0.243-2.416,0.729-3.25c0.485-0.833,1.125-1.485,1.916-1.958
			c0.792-0.472,1.681-0.812,2.667-1.021c0.985-0.208,1.979-0.368,2.979-0.479c0.86-0.166,1.681-0.284,2.458-0.354
			s1.465-0.188,2.062-0.354c0.597-0.167,1.069-0.423,1.417-0.771c0.347-0.348,0.521-0.868,0.521-1.562
			c0-0.611-0.146-1.111-0.438-1.5s-0.653-0.688-1.083-0.896c-0.432-0.209-0.91-0.348-1.438-0.417
			c-0.528-0.069-1.028-0.104-1.5-0.104c-1.333,0-2.431,0.278-3.292,0.834c-0.86,0.556-1.347,1.416-1.458,2.583h-4.749
			c0.083-1.389,0.416-2.542,1-3.458c0.583-0.917,1.325-1.652,2.229-2.209c0.902-0.555,1.923-0.943,3.062-1.166
			c1.139-0.222,2.305-0.333,3.5-0.333c1.055,0,2.097,0.111,3.124,0.333c1.027,0.223,1.951,0.583,2.771,1.083
			s1.479,1.146,1.979,1.938s0.75,1.757,0.75,2.896V52.984z M191.246,46.984c-0.723,0.473-1.611,0.757-2.666,0.854
			c-1.056,0.098-2.111,0.243-3.167,0.438c-0.5,0.083-0.986,0.201-1.458,0.354c-0.473,0.153-0.889,0.361-1.25,0.625
			c-0.361,0.265-0.646,0.611-0.854,1.042c-0.209,0.431-0.312,0.951-0.312,1.562c0,0.527,0.152,0.973,0.458,1.333
			c0.306,0.361,0.673,0.646,1.104,0.854c0.43,0.208,0.901,0.354,1.416,0.438c0.514,0.083,0.979,0.125,1.396,0.125
			c0.527,0,1.098-0.069,1.709-0.209c0.61-0.139,1.187-0.375,1.729-0.708s0.993-0.757,1.354-1.271
			c0.36-0.514,0.541-1.146,0.541-1.896V46.984z"/>
		<path class="st1" d="M221.036,56.65c0,3.25-0.91,5.673-2.729,7.271c-1.819,1.597-4.437,2.396-7.854,2.396
			c-1.083,0-2.174-0.111-3.271-0.333c-1.098-0.223-2.098-0.598-3-1.125c-0.902-0.528-1.66-1.223-2.271-2.083
			c-0.611-0.861-0.973-1.917-1.083-3.167h4.75c0.139,0.667,0.375,1.208,0.708,1.625s0.729,0.743,1.188,0.979
			c0.458,0.235,0.965,0.389,1.521,0.458s1.139,0.104,1.75,0.104c1.916,0,3.318-0.473,4.208-1.417
			c0.889-0.944,1.333-2.306,1.333-4.083v-3.291h-0.083c-0.667,1.194-1.577,2.124-2.729,2.791s-2.396,1-3.729,1
			c-1.723,0-3.188-0.298-4.396-0.896s-2.208-1.417-3-2.458c-0.791-1.042-1.368-2.243-1.729-3.604
			c-0.361-1.36-0.542-2.818-0.542-4.375c0-1.443,0.222-2.818,0.667-4.124c0.443-1.306,1.083-2.451,1.916-3.438
			c0.833-0.985,1.854-1.771,3.062-2.354c1.208-0.583,2.576-0.874,4.104-0.874c1.361,0,2.61,0.285,3.75,0.854
			c1.139,0.569,2.014,1.466,2.625,2.688h0.083v-2.958h4.75V56.65z M210.495,54.025c1.056,0,1.951-0.215,2.688-0.646
			c0.735-0.431,1.333-1,1.791-1.708c0.459-0.709,0.792-1.514,1-2.417c0.209-0.902,0.312-1.812,0.312-2.729
			c0-0.917-0.111-1.806-0.333-2.667c-0.223-0.86-0.562-1.625-1.021-2.291c-0.459-0.667-1.057-1.194-1.792-1.583
			c-0.736-0.389-1.618-0.584-2.646-0.584c-1.056,0-1.944,0.223-2.667,0.667s-1.306,1.021-1.749,1.729
			c-0.445,0.709-0.765,1.515-0.959,2.417c-0.194,0.903-0.291,1.799-0.291,2.688s0.11,1.757,0.333,2.604
			c0.222,0.848,0.562,1.604,1.021,2.271c0.459,0.667,1.042,1.209,1.75,1.625C208.64,53.817,209.495,54.025,210.495,54.025z"/>
		<path class="st1" d="M225.827,36.235h4.458v4.166h0.083c0.139-0.583,0.409-1.152,0.812-1.708c0.402-0.556,0.889-1.062,1.458-1.521
			c0.569-0.459,1.201-0.826,1.896-1.104c0.694-0.277,1.402-0.416,2.125-0.416c0.556,0,0.938,0.014,1.146,0.041
			c0.209,0.028,0.424,0.057,0.646,0.084v4.583c-0.334-0.056-0.674-0.104-1.021-0.146c-0.348-0.041-0.688-0.062-1.021-0.062
			c-0.806,0-1.562,0.16-2.271,0.479s-1.327,0.791-1.854,1.416s-0.944,1.396-1.249,2.312c-0.307,0.917-0.459,1.973-0.459,3.167
			v10.249h-4.749V36.235z"/>
		<path class="st1" d="M258.532,52.984c0,0.583,0.076,1,0.229,1.25c0.152,0.25,0.451,0.375,0.896,0.375c0.139,0,0.306,0,0.5,0
			s0.417-0.027,0.667-0.084v3.292c-0.167,0.055-0.382,0.117-0.646,0.188c-0.265,0.068-0.535,0.131-0.812,0.188
			c-0.278,0.055-0.557,0.097-0.834,0.125c-0.277,0.027-0.514,0.041-0.708,0.041c-0.973,0-1.777-0.194-2.416-0.583
			c-0.64-0.389-1.057-1.069-1.25-2.042c-0.944,0.917-2.104,1.584-3.479,2c-1.375,0.417-2.701,0.625-3.979,0.625
			c-0.973,0-1.903-0.132-2.791-0.396c-0.89-0.264-1.674-0.652-2.354-1.167c-0.681-0.514-1.223-1.166-1.625-1.958
			c-0.403-0.791-0.604-1.715-0.604-2.771c0-1.333,0.243-2.416,0.729-3.25c0.485-0.833,1.125-1.485,1.917-1.958
			c0.791-0.472,1.68-0.812,2.666-1.021c0.985-0.208,1.979-0.368,2.979-0.479c0.86-0.166,1.68-0.284,2.458-0.354
			c0.777-0.069,1.465-0.188,2.062-0.354c0.597-0.167,1.068-0.423,1.416-0.771c0.347-0.348,0.521-0.868,0.521-1.562
			c0-0.611-0.146-1.111-0.438-1.5c-0.291-0.389-0.652-0.688-1.083-0.896c-0.431-0.209-0.91-0.348-1.438-0.417
			s-1.027-0.104-1.5-0.104c-1.333,0-2.431,0.278-3.291,0.834c-0.861,0.556-1.348,1.416-1.458,2.583h-4.75
			c0.083-1.389,0.417-2.542,1-3.458c0.583-0.917,1.326-1.652,2.229-2.209c0.901-0.555,1.923-0.943,3.062-1.166
			c1.139-0.222,2.306-0.333,3.5-0.333c1.056,0,2.097,0.111,3.125,0.333c1.027,0.223,1.951,0.583,2.771,1.083
			s1.479,1.146,1.979,1.938c0.499,0.792,0.749,1.757,0.749,2.896V52.984z M253.783,46.984c-0.723,0.473-1.611,0.757-2.667,0.854
			s-2.111,0.243-3.166,0.438c-0.5,0.083-0.986,0.201-1.458,0.354c-0.473,0.153-0.89,0.361-1.25,0.625
			c-0.361,0.265-0.646,0.611-0.854,1.042s-0.312,0.951-0.312,1.562c0,0.527,0.152,0.973,0.458,1.333
			c0.306,0.361,0.674,0.646,1.104,0.854c0.431,0.208,0.902,0.354,1.417,0.438c0.514,0.083,0.979,0.125,1.396,0.125
			c0.527,0,1.097-0.069,1.708-0.209c0.61-0.139,1.188-0.375,1.729-0.708c0.541-0.333,0.992-0.757,1.354-1.271
			c0.36-0.514,0.542-1.146,0.542-1.896V46.984z"/>
		<path class="st1" d="M263.657,36.235h4.5v3h0.125c0.36-0.527,0.75-1.014,1.166-1.459c0.417-0.443,0.882-0.818,1.396-1.125
			c0.514-0.305,1.104-0.548,1.771-0.729c0.666-0.181,1.43-0.271,2.291-0.271c1.306,0,2.521,0.291,3.646,0.874
			c1.125,0.584,1.924,1.486,2.396,2.709c0.805-1.111,1.735-1.986,2.791-2.625s2.375-0.958,3.958-0.958
			c2.277,0,4.048,0.556,5.312,1.666c1.264,1.111,1.896,2.973,1.896,5.583v14.874h-4.75V45.193c0-0.861-0.027-1.646-0.083-2.354
			s-0.216-1.319-0.479-1.833s-0.66-0.909-1.188-1.188c-0.527-0.277-1.25-0.417-2.166-0.417c-1.611,0-2.778,0.5-3.5,1.5
			c-0.723,1-1.083,2.417-1.083,4.25v12.624h-4.75V43.943c0-1.5-0.271-2.632-0.812-3.396c-0.541-0.764-1.535-1.146-2.979-1.146
			c-0.611,0-1.202,0.125-1.771,0.375c-0.57,0.25-1.07,0.611-1.5,1.084c-0.432,0.472-0.778,1.056-1.042,1.749
			c-0.265,0.695-0.396,1.486-0.396,2.375v12.791h-4.75V36.235z"/>
	</g>
</g>
</svg>