<!-- Generator: Adobe Illustrator 24.2.3, SVG Export Plug-In  -->
<svg version="1.1" xmlns="http://www.w3.org/2000/svg" xmlns:xlink="http://www.w3.org/1999/xlink" x="0px" y="0px"
	 width="127.568px" height="156.643px" viewBox="0 0 127.568 156.643"
	 style="overflow:visible;enable-background:new 0 0 127.568 156.643;" xml:space="preserve">
<style type="text/css">
	.st0{fill:#FFFFFF;}
</style>
<defs>
</defs>
<g>
	<path class="st0" d="M106.503,83.15c-0.215-19.824,16.145-29.369,16.882-29.831c-9.226-13.452-23.556-15.277-28.661-15.493
		c-12.201-1.219-23.791,7.215-29.975,7.223c-6.18,0.009-15.744-6.975-25.854-6.769c-13.3,0.209-25.54,7.76-32.38,19.668
		c-13.772,23.99-3.448,59.477,10.034,78.9c6.591,9.495,14.445,20.185,24.749,19.784c9.921-0.4,13.663-6.429,25.647-6.444
		c11.988-0.016,15.372,6.39,25.86,6.177c10.675-0.202,17.425-9.715,23.942-19.263c7.541-11.049,10.632-21.74,10.818-22.292
		C127.333,114.705,106.745,106.845,106.503,83.15"/>
	<path class="st0" d="M86.81,25.008C92.282,18.383,95.962,9.176,94.954,0c-7.875,0.32-17.414,5.25-23.07,11.867
		c-5.066,5.863-9.504,15.234-8.305,24.227C72.361,36.773,81.337,31.625,86.81,25.008"/>
</g>
</svg>