<!-- Generator: Adobe Illustrator 24.2.3, SVG Export Plug-In  -->
<svg version="1.1" xmlns="http://www.w3.org/2000/svg" xmlns:xlink="http://www.w3.org/1999/xlink" x="0px" y="0px" width="135px"
	 height="40px" viewBox="0 0 135 40" style="overflow:visible;enable-background:new 0 0 135 40;" xml:space="preserve">
<style type="text/css">
	.st0{fill:#A6A6A6;}
	.st1{fill:#FFFFFF;}
	.st2{fill:url(#SVGID_1_);}
	.st3{fill:url(#SVGID_2_);}
	.st4{fill:url(#SVGID_3_);}
	.st5{fill:url(#SVGID_4_);}
	.st6{opacity:0.2;enable-background:new    ;}
	.st7{opacity:0.12;enable-background:new    ;}
	.st8{opacity:0.25;fill:#FFFFFF;enable-background:new    ;}
	.st9{fill:#FFFFFF;stroke:#FFFFFF;stroke-width:0.2;stroke-miterlimit:10;}
	.st10{fill:url(#SVGID_5_);}
	.st11{fill:url(#SVGID_6_);}
	.st12{fill:url(#SVGID_7_);}
	.st13{fill:url(#SVGID_8_);}
</style>
<defs>
</defs>
<g>
	<g>
		<g>
			<path d="M130,40H5c-2.75,0-5-2.25-5-5V5c0-2.75,2.25-5,5-5h125c2.75,0,5,2.25,5,5v30C135,37.75,132.75,40,130,40z"/>
		</g>
		<g>
			<g>
				<path class="st0" d="M130,0.8c2.316,0,4.2,1.884,4.2,4.2v30c0,2.316-1.884,4.2-4.2,4.2H5c-2.316,0-4.2-1.884-4.2-4.2V5
					c0-2.316,1.884-4.2,4.2-4.2H130 M130,0H5C2.25,0,0,2.25,0,5v30c0,2.75,2.25,5,5,5h125c2.75,0,5-2.25,5-5V5
					C135,2.25,132.75,0,130,0L130,0z"/>
			</g>
		</g>
		<path class="st1" d="M68.136,21.752c-2.352,0-4.269,1.788-4.269,4.253c0,2.449,1.917,4.253,4.269,4.253
			c2.352,0,4.269-1.804,4.269-4.253C72.405,23.54,70.488,21.752,68.136,21.752z M68.136,28.583c-1.289,0-2.401-1.063-2.401-2.578
			c0-1.531,1.112-2.578,2.401-2.578c1.289,0,2.4,1.047,2.4,2.578C70.536,27.519,69.425,28.583,68.136,28.583z M58.822,21.752
			c-2.352,0-4.269,1.788-4.269,4.253c0,2.449,1.917,4.253,4.269,4.253c2.352,0,4.269-1.804,4.269-4.253
			C63.092,23.54,61.174,21.752,58.822,21.752z M58.822,28.583c-1.289,0-2.4-1.063-2.4-2.578c0-1.531,1.112-2.578,2.4-2.578
			c1.289,0,2.4,1.047,2.4,2.578C61.223,27.519,60.111,28.583,58.822,28.583z M47.744,23.057v1.804h4.318
			c-0.129,1.015-0.467,1.756-0.983,2.272c-0.628,0.628-1.611,1.321-3.335,1.321c-2.658,0-4.736-2.143-4.736-4.801
			s2.078-4.801,4.736-4.801c1.434,0,2.481,0.564,3.254,1.289l1.273-1.273c-1.079-1.031-2.513-1.821-4.527-1.821
			c-3.641,0-6.702,2.964-6.702,6.605c0,3.641,3.061,6.605,6.702,6.605c1.965,0,3.448-0.644,4.608-1.853
			c1.192-1.192,1.563-2.868,1.563-4.221c0-0.419-0.032-0.806-0.097-1.128H47.744z M93.052,24.458
			c-0.354-0.951-1.434-2.707-3.641-2.707c-2.191,0-4.011,1.724-4.011,4.253c0,2.384,1.804,4.253,4.221,4.253
			c1.949,0,3.077-1.192,3.544-1.885l-1.45-0.967c-0.483,0.709-1.144,1.176-2.094,1.176c-0.951,0-1.627-0.435-2.062-1.289
			l5.687-2.352L93.052,24.458z M87.252,25.876c-0.048-1.643,1.273-2.481,2.223-2.481c0.741,0,1.369,0.37,1.579,0.902L87.252,25.876z
			 M82.628,30h1.869V17.499h-1.869V30z M79.567,22.702h-0.064c-0.419-0.499-1.224-0.951-2.239-0.951
			c-2.127,0-4.076,1.869-4.076,4.269c0,2.384,1.949,4.237,4.076,4.237c1.015,0,1.82-0.451,2.239-0.967h0.064v0.612
			c0,1.627-0.87,2.497-2.272,2.497c-1.144,0-1.853-0.822-2.143-1.514l-1.627,0.677c0.467,1.128,1.708,2.513,3.77,2.513
			c2.191,0,4.044-1.289,4.044-4.43v-7.636h-1.772V22.702z M77.425,28.583c-1.289,0-2.368-1.079-2.368-2.562
			c0-1.498,1.079-2.594,2.368-2.594c1.273,0,2.271,1.095,2.271,2.594C79.696,27.503,78.698,28.583,77.425,28.583z M101.806,17.499
			h-4.471V30H99.2v-4.736h2.605c2.068,0,4.101-1.497,4.101-3.882S103.874,17.499,101.806,17.499z M101.854,23.524H99.2v-4.285h2.654
			c1.395,0,2.187,1.155,2.187,2.143C104.041,22.35,103.249,23.524,101.854,23.524z M113.386,21.729c-1.351,0-2.75,0.595-3.329,1.914
			l1.657,0.692c0.354-0.692,1.013-0.917,1.705-0.917c0.965,0,1.946,0.579,1.962,1.608v0.129c-0.338-0.193-1.062-0.483-1.946-0.483
			c-1.785,0-3.603,0.981-3.603,2.815c0,1.673,1.464,2.75,3.104,2.75c1.255,0,1.946-0.563,2.38-1.222h0.064v0.965h1.801v-4.793
			C117.181,22.967,115.525,21.729,113.386,21.729z M113.16,28.58c-0.611,0-1.464-0.306-1.464-1.061c0-0.965,1.062-1.335,1.978-1.335
			c0.82,0,1.206,0.177,1.705,0.418C115.235,27.76,114.238,28.58,113.16,28.58z M123.743,22.002l-2.139,5.42h-0.064l-2.219-5.42
			h-2.01l3.329,7.575l-1.898,4.214h1.946l5.131-11.789H123.743z M106.936,30h1.866V17.499h-1.866V30z"/>
		<g>
			
				<linearGradient id="SVGID_1_" gradientUnits="userSpaceOnUse" x1="21.7996" y1="-51.8432" x2="5.0172" y2="-68.6256" gradientTransform="matrix(1 0 0 -1 0 -43.1334)">
				<stop  offset="0" style="stop-color:#00A0FF"/>
				<stop  offset="0.0066" style="stop-color:#00A1FF"/>
				<stop  offset="0.2601" style="stop-color:#00BEFF"/>
				<stop  offset="0.5122" style="stop-color:#00D2FF"/>
				<stop  offset="0.7604" style="stop-color:#00DFFF"/>
				<stop  offset="1" style="stop-color:#00E3FF"/>
			</linearGradient>
			<path class="st2" d="M10.435,7.538c-0.291,0.308-0.463,0.786-0.463,1.405v22.116c0,0.62,0.172,1.097,0.463,1.405l0.074,0.072
				l12.389-12.389v-0.146v-0.146L10.509,7.465L10.435,7.538z"/>
			
				<linearGradient id="SVGID_2_" gradientUnits="userSpaceOnUse" x1="33.8343" y1="-63.1349" x2="9.6374" y2="-63.1349" gradientTransform="matrix(1 0 0 -1 0 -43.1334)">
				<stop  offset="0" style="stop-color:#FFE000"/>
				<stop  offset="0.4087" style="stop-color:#FFBD00"/>
				<stop  offset="0.7754" style="stop-color:#FFA500"/>
				<stop  offset="1" style="stop-color:#FF9C00"/>
			</linearGradient>
			<path class="st3" d="M27.028,24.279l-4.129-4.131v-0.146v-0.146l4.13-4.13l0.093,0.053l4.893,2.78
				c1.398,0.794,1.398,2.093,0,2.888l-4.893,2.78L27.028,24.279z"/>
			
				<linearGradient id="SVGID_3_" gradientUnits="userSpaceOnUse" x1="24.8269" y1="-65.4296" x2="2.0686" y2="-88.1879" gradientTransform="matrix(1 0 0 -1 0 -43.1334)">
				<stop  offset="0" style="stop-color:#FF3A44"/>
				<stop  offset="1" style="stop-color:#C31162"/>
			</linearGradient>
			<path class="st4" d="M27.122,24.225l-4.223-4.224L10.435,32.464c0.461,0.488,1.221,0.548,2.078,0.061L27.122,24.225"/>
			
				<linearGradient id="SVGID_4_" gradientUnits="userSpaceOnUse" x1="7.2972" y1="-43.3097" x2="17.4598" y2="-53.4722" gradientTransform="matrix(1 0 0 -1 0 -43.1334)">
				<stop  offset="0" style="stop-color:#32A071"/>
				<stop  offset="0.0685" style="stop-color:#2DA771"/>
				<stop  offset="0.4762" style="stop-color:#15CF74"/>
				<stop  offset="0.8009" style="stop-color:#06E775"/>
				<stop  offset="1" style="stop-color:#00F076"/>
			</linearGradient>
			<path class="st5" d="M27.122,15.777l-14.608-8.3c-0.857-0.487-1.617-0.426-2.078,0.061l12.463,12.463L27.122,15.777z"/>
			<g>
				<path class="st6" d="M27.029,24.132l-14.515,8.247c-0.812,0.461-1.538,0.431-2.004,0.011l0,0l-0.075,0.075l0,0l0.074,0.072l0,0
					c0.466,0.42,1.192,0.451,2.004-0.011l14.608-8.3L27.029,24.132z"/>
				<path class="st7" d="M10.435,32.318c-0.291-0.308-0.463-0.786-0.463-1.405v0.146c0,0.619,0.172,1.097,0.463,1.405l0.075-0.075
					L10.435,32.318z"/>
			</g>
			<path class="st7" d="M32.015,21.299l-4.986,2.833l0.093,0.093l4.893-2.78c0.699-0.397,1.048-0.92,1.048-1.443l0,0
				C33.004,20.475,32.648,20.939,32.015,21.299z"/>
			<path class="st8" d="M12.513,7.623l19.501,11.08c0.634,0.36,0.989,0.824,1.048,1.298l0,0c0-0.523-0.349-1.047-1.048-1.444
				L12.513,7.477c-1.398-0.794-2.541-0.135-2.541,1.466V9.09C9.972,7.489,11.116,6.829,12.513,7.623z"/>
		</g>
	</g>
	<g>
		<path class="st9" d="M41.28,13V7h1.835c0.922,0,1.659,0.278,2.213,0.834C45.881,8.39,46.157,9.111,46.157,10
			c0,0.888-0.276,1.61-0.829,2.166C44.774,12.722,44.037,13,43.115,13H41.28z M42.051,12.263h1.064c0.692,0,1.241-0.198,1.646-0.595
			c0.405-0.396,0.607-0.953,0.607-1.667c0-0.71-0.202-1.264-0.607-1.664c-0.405-0.399-0.954-0.599-1.646-0.599h-1.064V12.263z"/>
		<path class="st9" d="M47.239,13V7h0.771v6H47.239z"/>
		<path class="st9" d="M51.076,13.134c-0.436,0-0.861-0.142-1.277-0.427c-0.417-0.285-0.689-0.684-0.817-1.199l0.704-0.285
			c0.084,0.33,0.255,0.608,0.515,0.834c0.261,0.226,0.552,0.339,0.876,0.339c0.335,0,0.622-0.088,0.859-0.264
			c0.237-0.176,0.356-0.415,0.356-0.717c0-0.335-0.118-0.593-0.356-0.775c-0.237-0.182-0.613-0.351-1.127-0.507
			c-0.531-0.167-0.934-0.384-1.207-0.649C49.328,9.219,49.19,8.88,49.19,8.466c0-0.43,0.171-0.804,0.512-1.122
			c0.341-0.318,0.785-0.478,1.332-0.478c0.509,0,0.922,0.128,1.24,0.381c0.318,0.254,0.525,0.532,0.62,0.834l-0.703,0.293
			c-0.051-0.189-0.175-0.366-0.373-0.528c-0.198-0.162-0.454-0.243-0.768-0.243c-0.296,0-0.549,0.082-0.758,0.247
			c-0.21,0.165-0.314,0.37-0.314,0.616c0,0.224,0.097,0.412,0.289,0.566c0.193,0.153,0.476,0.292,0.851,0.415
			c0.296,0.095,0.543,0.187,0.742,0.277c0.198,0.089,0.399,0.208,0.603,0.356c0.204,0.148,0.357,0.332,0.461,0.553
			c0.104,0.221,0.155,0.476,0.155,0.767s-0.06,0.55-0.18,0.779c-0.12,0.23-0.28,0.411-0.479,0.545
			c-0.198,0.134-0.411,0.236-0.641,0.306C51.551,13.099,51.316,13.134,51.076,13.134z"/>
		<path class="st9" d="M54.956,13h-0.771V7h2.045c0.508,0,0.948,0.169,1.319,0.507c0.372,0.338,0.558,0.764,0.558,1.278
			c0,0.514-0.186,0.939-0.558,1.277c-0.371,0.338-0.812,0.507-1.319,0.507h-1.274V13z M54.956,9.832h1.291
			c0.324,0,0.584-0.108,0.779-0.326c0.195-0.218,0.293-0.458,0.293-0.721s-0.098-0.503-0.293-0.721
			c-0.195-0.218-0.455-0.327-0.779-0.327h-1.291V9.832z"/>
		<path class="st9" d="M63.985,12.225c-0.59,0.606-1.323,0.909-2.2,0.909c-0.877,0-1.61-0.303-2.199-0.909
			c-0.59-0.606-0.884-1.348-0.884-2.225s0.294-1.619,0.884-2.225c0.589-0.606,1.322-0.91,2.199-0.91
			c0.872,0,1.604,0.305,2.196,0.914c0.592,0.609,0.888,1.349,0.888,2.221C64.869,10.877,64.574,11.619,63.985,12.225z
			 M60.155,11.722c0.444,0.45,0.987,0.674,1.63,0.674c0.643,0,1.187-0.225,1.63-0.674c0.444-0.45,0.667-1.024,0.667-1.722
			s-0.223-1.273-0.667-1.722c-0.443-0.45-0.987-0.674-1.63-0.674c-0.643,0-1.186,0.225-1.63,0.674
			c-0.443,0.45-0.666,1.024-0.666,1.722S59.712,11.273,60.155,11.722z"/>
		<path class="st9" d="M65.951,13V7h0.938l2.916,4.667h0.033l-0.033-1.156V7h0.771v6h-0.805l-3.051-4.894h-0.033l0.033,1.156V13
			H65.951z"/>
		<path class="st9" d="M71.951,13V7h0.771v6H71.951z"/>
		<path class="st9" d="M74.096,13V7h2.17c0.47,0,0.876,0.155,1.22,0.465c0.344,0.311,0.516,0.7,0.516,1.169
			c0,0.285-0.074,0.537-0.223,0.754c-0.147,0.218-0.345,0.383-0.591,0.495v0.033c0.296,0.101,0.539,0.274,0.729,0.52
			c0.189,0.246,0.285,0.531,0.285,0.855c0,0.492-0.181,0.899-0.541,1.223C77.301,12.838,76.875,13,76.383,13H74.096z M74.866,9.572
			h1.399c0.291,0,0.524-0.096,0.7-0.289c0.176-0.192,0.264-0.403,0.264-0.632s-0.085-0.439-0.256-0.628
			c-0.17-0.19-0.395-0.285-0.674-0.285h-1.434V9.572z M74.866,12.263h1.551c0.296,0,0.536-0.104,0.721-0.311
			c0.185-0.206,0.276-0.433,0.276-0.679c0-0.246-0.095-0.47-0.285-0.674c-0.189-0.204-0.438-0.306-0.746-0.306h-1.517V12.263z"/>
		<path class="st9" d="M79.241,13V7h0.771v5.263h2.598V13H79.241z"/>
		<path class="st9" d="M87.085,7.737h-2.732V9.64h2.464v0.721h-2.464v1.902h2.732V13h-3.503V7h3.503V7.737z"/>
		<path class="st9" d="M93.806,7.737h-2.732V9.64h2.464v0.721h-2.464v1.902h2.732V13h-3.503V7h3.503V7.737z"/>
		<path class="st9" d="M95.012,13V7h0.938l2.916,4.667h0.033l-0.033-1.156V7h0.771v6h-0.805l-3.051-4.894h-0.033l0.033,1.156V13
			H95.012z"/>
	</g>
</g>
</svg>