<!-- Generator: Adobe Illustrator 24.2.3, SVG Export Plug-In  -->
<svg version="1.1" xmlns="http://www.w3.org/2000/svg" xmlns:xlink="http://www.w3.org/1999/xlink" x="0px" y="0px"
	 width="511.48px" height="167.312px" viewBox="0 0 511.48 167.312"
	 style="overflow:visible;enable-background:new 0 0 511.48 167.312;" xml:space="preserve">
<style type="text/css">
	.st0{fill:#FFFFFF;}
</style>
<defs>
</defs>
<path d="M511.48,144.699c0,12.486-10.121,22.612-22.605,22.612H22.61C10.125,167.312,0,157.186,0,144.699V22.61
	C0,10.125,10.125,0,22.61,0h466.264c12.484,0,22.605,10.125,22.605,22.61V144.699z"/>
<path class="st0" d="M88.336,28.613H46.673c-4.992,0-9.041,4.046-9.041,9.041v92.303c0,4.996,4.049,9.045,9.041,9.045h41.663
	c4.996,0,9.046-4.049,9.046-9.045V37.654C97.382,32.659,93.332,28.613,88.336,28.613z M67.505,132.363
	c-3.325,0-6.02-2.695-6.02-6.024c0-3.325,2.695-6.021,6.02-6.021c3.329,0,6.024,2.695,6.024,6.021
	C73.529,129.668,70.834,132.363,67.505,132.363z M90.279,117.385H44.732V49.3h45.547V117.385z"/>
<g>
	<path class="st0" d="M146.493,69.251l-21.451,63.144h9.823l6.405-19.389h20.77l6.585,19.389h10.095l-21.544-63.144H146.493z
		 M151.583,79.633c0.724,2.818,1.505,5.745,2.51,8.907l5.781,16.742h-16.453l5.701-16.851
		C149.991,85.699,150.814,82.748,151.583,79.633z"/>
	<path class="st0" d="M206.479,85.62c-6.507,0-11.719,2.511-15.188,7.285l-0.38-6.281h-8.738l0.052,0.804
		c0.256,3.912,0.365,8.219,0.365,14.402v48.67h9.551v-22.713c2.964,3.547,7.698,5.611,13.06,5.611
		c5.584,0,10.728-2.188,14.477-6.154c4.184-4.423,6.393-10.78,6.393-18.376c0-6.712-1.918-12.515-5.552-16.778
		C216.96,87.917,211.977,85.62,206.479,85.62z M204.099,93.528c8.516,0,12.328,7.89,12.328,15.706
		c0,10.084-4.863,16.348-12.69,16.348c-5.344,0-9.968-3.637-11.254-8.864c-0.221-0.811-0.341-1.884-0.341-3.094v-7.683
		c0-0.695,0.156-1.539,0.305-2.357c0.047-0.262,0.098-0.522,0.137-0.776C194.007,97.342,198.737,93.528,204.099,93.528z"/>
	<path class="st0" d="M255.674,85.62c-6.506,0-11.718,2.511-15.189,7.285l-0.38-6.281h-8.737l0.05,0.804
		c0.258,3.916,0.367,8.219,0.367,14.402v48.67h9.556v-22.713c2.962,3.547,7.693,5.611,13.054,5.611
		c5.586,0,10.729-2.188,14.483-6.154c4.18-4.423,6.389-10.78,6.389-18.376c0-6.712-1.92-12.515-5.553-16.778
		C266.156,87.917,261.171,85.62,255.674,85.62z M253.297,93.528c8.513,0,12.324,7.89,12.324,15.706
		c0,10.084-4.865,16.348-12.69,16.348c-5.342,0-9.969-3.637-11.255-8.864c-0.221-0.811-0.336-1.884-0.336-3.094v-7.683
		c0-0.699,0.151-1.547,0.305-2.365c0.047-0.258,0.094-0.515,0.138-0.769C243.202,97.342,247.933,93.528,253.297,93.528z"/>
	<path class="st0" d="M317.304,96.006c-8.916-3.453-11.773-6.169-11.773-11.186c0-4.225,3.357-8.484,10.859-8.484
		c6.189,0,10.15,2.152,11.215,2.814l0.811,0.5l2.695-7.973l-0.533-0.312c-1.6-0.938-6.16-3.122-13.912-3.122
		c-12.184,0-20.691,7.193-20.691,17.488c0,8.303,5.328,14.105,16.77,18.264c8.105,3.031,11.123,6.136,11.123,11.457
		c0,6.023-4.654,9.762-12.143,9.762c-4.877,0-9.896-1.423-13.77-3.904l-0.828-0.532l-2.565,8.157l0.471,0.312
		c3.605,2.408,10.395,4.15,16.145,4.15c16.42,0,22.242-10.012,22.242-18.586C333.419,105.975,328.751,100.522,317.304,96.006z"/>
	<path class="st0" d="M350.617,75.746l-9.371,2.941v7.937h-6.857v7.636h6.857v23.389c0,5.654,1.082,9.617,3.309,12.121
		c2.135,2.34,5.418,3.629,9.242,3.629c3.613,0,6.178-0.713,7.385-1.141l0.535-0.189l-0.457-7.649l-0.916,0.282
		c-1.207,0.37-2.449,0.514-4.443,0.514c-3.703,0-5.283-2.344-5.283-7.842V94.26h11.523v-7.636h-11.523V75.746z"/>
	<path class="st0" d="M385.816,85.62c-13.367,0-22.701,9.976-22.701,24.255c0,13.852,9.033,23.523,21.969,23.523h0.09
		c10.935,0,22.701-7.618,22.701-24.346c0-6.803-2.103-12.645-6.088-16.899C397.779,87.881,392.255,85.62,385.816,85.62z
		 M385.54,93.162c8.596,0,12.506,8.378,12.506,16.166c0,9.577-5.338,16.528-12.688,16.528h-0.092
		c-7.246,0-12.506-6.835-12.506-16.253C372.761,101.421,376.712,93.162,385.54,93.162z"/>
	<path class="st0" d="M437.136,86.062l-0.572-0.146c-0.842-0.21-1.529-0.297-2.377-0.297c-4.998,0-9.482,2.942-11.978,7.69
		l-0.281-6.687h-8.572l0.055,0.804c0.254,3.782,0.361,8.027,0.361,13.758l-0.09,31.209h9.555v-24.349
		c0-1.325,0.092-2.579,0.262-3.702c1.08-5.85,5.025-9.629,10.053-9.629c0.978,0,1.748,0.08,2.564,0.16l1.021,0.105V86.062z"/>
	<path class="st0" d="M458.617,85.529c-12.719,0-21.604,10.161-21.604,24.711c0,14.012,8.838,23.067,22.516,23.067
		c7.193,0,12.197-1.579,15.127-2.901l0.574-0.26l-1.834-7.118l-0.799,0.321c-2.604,1.059-6.062,2.141-11.971,2.141
		c-4.15,0-13.721-1.369-14.309-13.852l30.838,0.092l0.123-0.609c0.195-0.971,0.289-2.278,0.289-3.988
		C477.568,97.168,472.605,85.529,458.617,85.529z M457.978,92.797c2.91,0,5.271,0.9,7.014,2.676c2.748,2.797,3.23,6.916,3.289,8.893
		h-21.785C447.38,98.849,450.832,92.797,457.978,92.797z"/>
</g>
<g>
	<path class="st0" d="M158.611,28.786c1.908-0.288,4.177-0.504,6.661-0.504c4.502,0,7.707,1.044,9.831,3.024
		c2.161,1.981,3.421,4.79,3.421,8.715c0,3.961-1.224,7.202-3.493,9.435c-2.269,2.27-6.014,3.493-10.73,3.493
		c-2.232,0-4.105-0.107-5.689-0.288V28.786z M161.744,50.249c0.792,0.144,1.944,0.18,3.169,0.18c6.697,0,10.335-3.745,10.335-10.299
		c0.036-5.726-3.205-9.363-9.831-9.363c-1.62,0-2.845,0.145-3.673,0.324V50.249z"/>
	<path class="st0" d="M188.356,30.407c0.036,1.08-0.757,1.944-2.017,1.944c-1.117,0-1.909-0.864-1.909-1.944
		c0-1.117,0.828-1.981,1.98-1.981C187.6,28.426,188.356,29.29,188.356,30.407z M184.827,52.733v-17.43h3.169v17.43H184.827z"/>
	<path class="st0" d="M195.162,49.492c0.937,0.612,2.593,1.261,4.178,1.261c2.305,0,3.385-1.152,3.385-2.593
		c0-1.513-0.9-2.341-3.241-3.205c-3.133-1.116-4.609-2.845-4.609-4.934c0-2.809,2.269-5.113,6.015-5.113
		c1.764,0,3.312,0.504,4.285,1.08l-0.793,2.305c-0.684-0.432-1.944-1.008-3.564-1.008c-1.873,0-2.917,1.08-2.917,2.376
		c0,1.44,1.044,2.089,3.312,2.953c3.025,1.152,4.573,2.665,4.573,5.258c0,3.061-2.376,5.222-6.518,5.222
		c-1.908,0-3.673-0.469-4.897-1.188L195.162,49.492z"/>
	<path class="st0" d="M212.196,40.994c0-2.233-0.072-4.033-0.145-5.69h2.845l0.145,2.989h0.072c1.296-2.124,3.349-3.385,6.193-3.385
		c4.214,0,7.383,3.565,7.383,8.858c0,6.266-3.817,9.363-7.923,9.363c-2.305,0-4.321-1.009-5.365-2.737h-0.072v9.471h-3.133V40.994z
		 M215.329,45.64c0,0.468,0.072,0.9,0.144,1.296c0.576,2.196,2.485,3.709,4.754,3.709c3.349,0,5.294-2.736,5.294-6.733
		c0-3.493-1.837-6.482-5.186-6.482c-2.161,0-4.178,1.549-4.79,3.926c-0.107,0.396-0.216,0.863-0.216,1.296V45.64z"/>
	<path class="st0" d="M250.799,43.875c0,6.445-4.465,9.255-8.679,9.255c-4.717,0-8.354-3.457-8.354-8.967
		c0-5.834,3.817-9.255,8.643-9.255C247.414,34.908,250.799,38.545,250.799,43.875z M236.971,44.055c0,3.817,2.197,6.698,5.294,6.698
		c3.024,0,5.293-2.845,5.293-6.771c0-2.952-1.476-6.697-5.222-6.697C238.592,37.285,236.971,40.742,236.971,44.055z"/>
	<path class="st0" d="M257.138,40.022c0-1.801-0.036-3.276-0.145-4.718h2.81l0.18,2.881h0.072c0.864-1.656,2.881-3.276,5.762-3.276
		c2.412,0,6.157,1.44,6.157,7.418v10.407h-3.169V42.687c0-2.809-1.044-5.149-4.033-5.149c-2.088,0-3.709,1.477-4.25,3.241
		c-0.144,0.396-0.216,0.936-0.216,1.476v10.479h-3.169V40.022z"/>
	<path class="st0" d="M282.995,30.407c0.035,1.08-0.757,1.944-2.017,1.944c-1.116,0-1.909-0.864-1.909-1.944
		c0-1.117,0.828-1.981,1.98-1.981C282.238,28.426,282.995,29.29,282.995,30.407z M279.465,52.733v-17.43h3.169v17.43H279.465z"/>
	<path class="st0" d="M290.088,52.733c0.072-1.188,0.145-2.953,0.145-4.501V27.166h3.133v10.947h0.072
		c1.116-1.944,3.133-3.205,5.941-3.205c4.321,0,7.383,3.601,7.347,8.895c0,6.229-3.926,9.327-7.814,9.327
		c-2.521,0-4.538-0.973-5.834-3.277h-0.108l-0.144,2.881H290.088z M293.366,45.747c0,0.396,0.072,0.793,0.145,1.152
		c0.611,2.197,2.448,3.709,4.753,3.709c3.313,0,5.294-2.7,5.294-6.697c0-3.493-1.801-6.482-5.186-6.482
		c-2.161,0-4.178,1.477-4.826,3.89c-0.071,0.359-0.18,0.792-0.18,1.296V45.747z"/>
	<path class="st0" d="M313.064,27.166h3.169v25.567h-3.169V27.166z"/>
	<path class="st0" d="M325.667,44.595c0.071,4.285,2.809,6.05,5.978,6.05c2.269,0,3.637-0.396,4.825-0.9l0.54,2.269
		c-1.116,0.505-3.024,1.081-5.797,1.081c-5.366,0-8.571-3.529-8.571-8.787c0-5.257,3.097-9.398,8.175-9.398
		c5.689,0,7.202,5.005,7.202,8.21c0,0.648-0.072,1.152-0.108,1.477H325.667z M334.958,42.326c0.036-2.017-0.828-5.149-4.393-5.149
		c-3.205,0-4.609,2.953-4.861,5.149H334.958z"/>
	<path class="st0" d="M356.025,44.595c0.071,4.285,2.809,6.05,5.978,6.05c2.269,0,3.637-0.396,4.825-0.9l0.54,2.269
		c-1.116,0.505-3.024,1.081-5.797,1.081c-5.366,0-8.571-3.529-8.571-8.787c0-5.257,3.097-9.398,8.175-9.398
		c5.689,0,7.202,5.005,7.202,8.21c0,0.648-0.072,1.152-0.108,1.477H356.025z M365.315,42.326c0.036-2.017-0.828-5.149-4.393-5.149
		c-3.205,0-4.609,2.953-4.861,5.149H365.315z"/>
	<path class="st0" d="M374.643,40.022c0-1.801-0.036-3.276-0.145-4.718h2.81l0.18,2.881h0.072c0.864-1.656,2.881-3.276,5.762-3.276
		c2.412,0,6.157,1.44,6.157,7.418v10.407h-3.169V42.687c0-2.809-1.044-5.149-4.033-5.149c-2.088,0-3.709,1.477-4.249,3.241
		c-0.144,0.396-0.216,0.936-0.216,1.476v10.479h-3.169V40.022z"/>
	<path class="st0" d="M408.71,44.595c0.071,4.285,2.809,6.05,5.978,6.05c2.269,0,3.637-0.396,4.825-0.9l0.54,2.269
		c-1.116,0.505-3.024,1.081-5.797,1.081c-5.366,0-8.571-3.529-8.571-8.787c0-5.257,3.097-9.398,8.175-9.398
		c5.689,0,7.202,5.005,7.202,8.21c0,0.648-0.072,1.152-0.108,1.477H408.71z M418,42.326c0.036-2.017-0.828-5.149-4.393-5.149
		c-3.205,0-4.609,2.953-4.861,5.149H418z"/>
	<path class="st0" d="M427.328,27.166h3.169v25.567h-3.169V27.166z"/>
</g>
</svg>